# File created by Blade
# Date/Time:  Thu Jan 22 16:31:19 2015
#---------------------------------------------------------
:version 1.10
:name HOM
:units
  mass 1.0
  length 1.000000
  angle deg
:documentation
     Acclaim Skeleton File
:root
   axis xyz
   order TX TY TZ RX RY RZ
   position 0.000000 0.000000 0.000000
   orientation 0 0 0
:bonedata
   begin
      id 1
      name RightUpLeg_dum
      direction -1.000000 0.000000 0.000000
      length 3.766986
      axis 0.0 0.0 0.0 xyz
   end
   begin
      id 2
      name LeftUpLeg_dum
      direction 1.000000 0.000000 0.000000
      length 3.766986
      axis 0.0 0.0 0.0 xyz
   end
   begin
      id 3
      name Spine_dum
      direction 0.000000 1.000000 0.000000
      length 7.779697
      axis 0.0 0.0 0.0 xyz
   end
   begin
      id 4
      name RightUpLeg
      direction 0.000000 -1.000000 0.000000
      length 18.017682
      axis 0.0 0.0 0.0 xyz
      dof rx ry rz
   end
   begin
      id 5
      name RightLeg
      direction 0.000000 -1.000000 0.000000
      length 16.881075
      axis 0.0 0.0 0.0 xyz
      dof rx ry rz
   end
   begin
      id 6
      name RightFoot
      direction 0.000000 -0.258819 0.965926
      length 5.770812
      axis 15.0 0.0 0.0 xyz
      dof rx ry rz
   end
   begin
      id 7
      name RightToeBase
      direction 0.000000 0.000000 1.000000
      length 2.952750
      axis 0.0 0.0 0.0 xyz
      dof rx ry rz
   end
   begin
      id 8
      name LeftUpLeg
      direction 0.000000 -1.000000 0.000000
      length 18.017682
      axis 0.0 0.0 0.0 xyz
      dof rx ry rz
   end
   begin
      id 9
      name LeftLeg
      direction 0.000000 -1.000000 0.000000
      length 16.881075
      axis 0.0 0.0 0.0 xyz
      dof rx ry rz
   end
   begin
      id 10
      name LeftFoot
      direction 0.000000 -0.258819 0.965926
      length 5.770812
      axis 15.0 0.0 0.0 xyz
      dof rx ry rz
   end
   begin
      id 11
      name LeftToeBase
      direction 0.000000 0.000000 1.000000
      length 2.952750
      axis 0.0 0.0 0.0 xyz
      dof rx ry rz
   end
   begin
      id 12
      name Spine
      direction 0.000000 1.000000 0.000000
      length 0.000000
      axis 0.0 0.0 0.0 xyz
      dof rx ry rz
   end
   begin
      id 13
      name Spine_dum1
      direction 0.000000 1.000000 0.000000
      length 10.941760
      axis 0.0 0.0 0.0 xyz
   end
   begin
      id 14
      name Spine_dum2
      direction 0.000000 1.000000 0.000000
      length 10.941760
      axis 0.0 0.0 0.0 xyz
   end
   begin
      id 15
      name Spine_dum3
      direction 0.000000 1.000000 0.000000
      length 16.646042
      axis 0.0 0.0 0.0 xyz
   end
   begin
      id 16
      name RightShoulder
      direction -1.000000 0.000000 0.000000
      length 7.708937
      axis 0.0 0.0 90.0 xyz
      dof rx ry rz
   end
   begin
      id 17
      name RightArm
      direction -1.000000 0.000000 0.000000
      length 11.521345
      axis 0.0 0.0 90.0 xyz
      dof rx ry rz
   end
   begin
      id 18
      name RightForeArm
      direction -1.000000 0.000000 0.000000
      length 10.175898
      axis 0.0 0.0 90.0 xyz
      dof ry rz rx
   end
   begin
      id 19
      name RightHand
      direction -1.000000 0.000000 0.000000
      length 0.000000
      axis 0.0 0.0 90.0 xyz
      dof rx ry rz
   end
   begin
      id 20
      name RightHand_dum1
      direction -1.000000 0.000000 0.000000
      length 3.937000
      axis 0.0 0.0 90.0 xyz
   end
   begin
      id 21
      name RightHand_dum2
      direction 0.000000 0.000000 0.000000
      length 0.000000
      axis 0.0 0.0 90.0 xyz
   end
   begin
      id 22
      name RightHandThumb1
      direction 0.000000 0.000000 1.000000
      length 3.937000
      axis 0.0 0.0 90.0 xyz
      dof rx rz ry
   end
   begin
      id 23
      name LeftShoulder
      direction 1.000000 0.000000 0.000000
      length 7.708937
      axis 0.0 0.0 -90.0 xyz
      dof rx ry rz
   end
   begin
      id 24
      name LeftArm
      direction 1.000000 0.000000 0.000000
      length 11.521345
      axis 0.0 0.0 -90.0 xyz
      dof rx ry rz
   end
   begin
      id 25
      name LeftForeArm
      direction 1.000000 0.000000 0.000000
      length 10.175898
      axis 0.0 0.0 -90.0 xyz
      dof ry rz rx
   end
   begin
      id 26
      name LeftHand
      direction 1.000000 0.000000 0.000000
      length 0.000000
      axis 0.0 0.0 -90.0 xyz
      dof rx ry rz
   end
   begin
      id 27
      name LeftHand_dum1
      direction 1.000000 0.000000 0.000000
      length 3.937000
      axis 0.0 0.0 -90.0 xyz
   end
   begin
      id 28
      name LeftHand_dum2
      direction 0.000000 0.000000 0.000000
      length 0.000000
      axis 0.0 0.0 -90.0 xyz
   end
   begin
      id 29
      name LeftHandThumb1
      direction 0.000000 0.000000 1.000000
      length 3.937000
      axis 0.0 0.0 -90.0 xyz
      dof rx rz ry
   end
   begin
      id 30
      name Head
      direction 0.000000 1.000000 0.000000
      length 4.527550
      axis 0.0 0.0 0.0 xyz
      dof rx ry rz
   end
:hierarchy
   begin
      root RightUpLeg_dum LeftUpLeg_dum Spine_dum
      RightUpLeg_dum RightUpLeg
      LeftUpLeg_dum LeftUpLeg
      Spine_dum Spine
      RightUpLeg RightLeg
      RightLeg RightFoot
      RightFoot RightToeBase
      LeftUpLeg LeftLeg
      LeftLeg LeftFoot
      LeftFoot LeftToeBase
      Spine Spine_dum1 Spine_dum2 Spine_dum3
      Spine_dum1 RightShoulder
      Spine_dum2 LeftShoulder
      Spine_dum3 Head
      RightShoulder RightArm
      RightArm RightForeArm
      RightForeArm RightHand
      RightHand RightHand_dum1 RightHand_dum2
      RightHand_dum2 RightHandThumb1
      LeftShoulder LeftArm
      LeftArm LeftForeArm
      LeftForeArm LeftHand
      LeftHand LeftHand_dum1 LeftHand_dum2
      LeftHand_dum2 LeftHandThumb1
   end

# File created by Blade
# Date/Time:  Thu Jan 22 16:31:11 2015
# Frame Rate: 120.000 fps
#------------------------------------------------------
:FULLY-SPECIFIED
:DEGREES
1
root 1.065123 37.094987 4.467673 -1.516119 -1.615943 2.085037
RightUpLeg 10.880529 -3.109413 -5.892767
RightLeg -6.626532 -0.000000 0.000000
RightFoot -11.621934 -17.504490 19.023326
RightToeBase 14.127098 -0.000000 -0.000000
LeftUpLeg 8.710213 4.359294 2.251446
LeftLeg -3.392235 -0.000000 0.000000
LeftFoot -8.284685 13.099655 -17.689285
LeftToeBase 9.511255 -0.000000 -0.000000
Spine 4.062128 -3.967925 -1.173926
RightShoulder -5.514127 -11.282314 -27.684949
RightArm 8.226311 29.001303 28.094868
RightForeArm 6.429890 -0.000000 16.950932
RightHand 3.085502 -0.000000 0.639847
RightHandThumb1 -24.326973 -0.000000 -32.862282
LeftShoulder -24.623516 32.833570 14.768139
LeftArm 49.053286 -51.017505 -58.177684
LeftForeArm 39.636687 -0.000000 4.767024
LeftHand -16.066206 -0.000000 -4.853841
LeftHandThumb1 -26.253704 0.000000 33.147579
Head -2.109708 11.954101 2.439528
2
root 1.063883 37.094615 4.469324 -1.535411 -1.601257 2.083697
RightUpLeg 10.915433 -3.119425 -5.897018
RightLeg -6.642501 -0.000000 0.000000
RightFoot -11.624603 -17.470365 19.065024
RightToeBase 14.130615 -0.000000 -0.000000
LeftUpLeg 8.730852 4.340494 2.256570
LeftLeg -3.391550 -0.000000 0.000000
LeftFoot -8.300397 13.096534 -17.716890
LeftToeBase 9.533261 -0.000000 -0.000000
Spine 4.065143 -3.988626 -1.164984
RightShoulder -5.488916 -11.265265 -27.695812
RightArm 8.216246 28.992835 28.118022
RightForeArm 6.416997 -0.000000 16.972431
RightHand 3.079692 -0.000000 0.647010
RightHandThumb1 -24.326973 -0.000000 -32.862282
LeftShoulder -24.660076 32.847992 14.730401
LeftArm 49.065679 -50.983479 -58.145026
LeftForeArm 39.626380 0.000000 4.751194
LeftHand -16.050488 -0.000000 -4.853016
LeftHandThumb1 -26.253704 0.000000 33.147579
Head -2.056364 11.928602 2.438104
3
root 1.063557 37.094196 4.468411 -1.546270 -1.601589 2.088899
RightUpLeg 10.918910 -3.143420 -5.901787
RightLeg -6.634078 -0.000000 0.000000
RightFoot -11.613856 -17.472221 19.009671
RightToeBase 14.097859 -0.000000 -0.000000
LeftUpLeg 8.741106 4.327724 2.250348
LeftLeg -3.395328 -0.000000 0.000000
LeftFoot -8.302536 13.114259 -17.716467
LeftToeBase 9.538588 -0.000000 -0.000000
Spine 4.067803 -3.985908 -1.159431
RightShoulder -5.496695 -11.287619 -27.694779
RightArm 8.269208 29.033338 28.167234
RightForeArm 6.382799 -0.000000 16.970859
RightHand 3.108914 -0.000000 0.607575
RightHandThumb1 -24.326973 -0.000000 -32.862282
LeftShoulder -24.647143 32.853438 14.729816
LeftArm 49.029222 -50.979700 -58.131940
LeftForeArm 39.645894 -0.000000 4.776798
LeftHand -16.080657 -0.000000 -4.871392
LeftHandThumb1 -26.253704 0.000000 33.147579
Head -2.022948 11.920453 2.431557
4
root 1.063321 37.093955 4.468444 -1.552728 -1.607127 2.091624
RightUpLeg 10.922207 -3.146406 -5.904625
RightLeg -6.629784 -0.000000 0.000000
RightFoot -11.613931 -17.471371 18.991262
RightToeBase 14.105419 -0.000000 -0.000000
LeftUpLeg 8.749063 4.331497 2.248280
LeftLeg -3.397169 -0.000000 0.000000
LeftFoot -8.309576 13.115971 -17.733127
LeftToeBase 9.571579 -0.000000 -0.000000
Spine 4.055928 -3.972052 -1.145201
RightShoulder -5.492337 -11.309893 -27.713267
RightArm 8.298840 29.044156 28.220724
RightForeArm 6.387400 -0.000000 16.974673
RightHand 3.098128 -0.000000 0.577827
RightHandThumb1 -24.326973 -0.000000 -32.862282
LeftShoulder -24.618581 32.860216 14.735158
LeftArm 48.966315 -50.964754 -58.089615
LeftForeArm 39.642048 0.000000 4.793987
LeftHand -16.057126 -0.000000 -4.922725
LeftHandThumb1 -26.253704 0.000000 33.147579
Head -1.976477 11.948969 2.424322
5
root 1.061787 37.093940 4.467374 -1.563929 -1.602695 2.084963
RightUpLeg 10.930387 -3.148819 -5.900859
RightLeg -6.621436 -0.000000 0.000000
RightFoot -11.628561 -17.438954 19.050887
RightToeBase 14.116545 -0.000000 -0.000000
LeftUpLeg 8.755588 4.325581 2.259540
LeftLeg -3.390759 -0.000000 0.000000
LeftFoot -8.305992 13.108803 -17.726063
LeftToeBase 9.497962 -0.000000 -0.000000
Spine 4.055007 -3.974472 -1.125486
RightShoulder -5.477906 -11.284392 -27.712779
RightArm 8.298437 28.995569 28.223535
RightForeArm 6.420911 -0.000000 16.969991
RightHand 3.059857 -0.000000 0.549390
RightHandThumb1 -24.326973 -0.000000 -32.862282
LeftShoulder -24.609742 32.862585 14.738602
LeftArm 48.926642 -50.940898 -58.067641
LeftForeArm 39.624858 0.000000 4.809727
LeftHand -16.069797 -0.000000 -4.918407
LeftHandThumb1 -26.253704 0.000000 33.147579
Head -1.932742 11.933939 2.414488
6
root 1.061165 37.093991 4.466083 -1.569263 -1.597598 2.082626
RightUpLeg 10.931361 -3.152829 -5.898092
RightLeg -6.614255 -0.000000 0.000000
RightFoot -11.630130 -17.436005 19.044771
RightToeBase 14.123819 -0.000000 -0.000000
LeftUpLeg 8.756780 4.321146 2.262080
LeftLeg -3.386392 -0.000000 0.000000
LeftFoot -8.308278 13.112563 -17.720323
LeftToeBase 9.485228 -0.000000 -0.000000
Spine 4.048810 -3.974194 -1.107298
RightShoulder -5.479580 -11.304584 -27.715357
RightArm 8.336025 29.009846 28.258814
RightForeArm 6.399253 -0.000000 16.967101
RightHand 3.048717 -0.000000 0.588177
RightHandThumb1 -24.326973 -0.000000 -32.862282
LeftShoulder -24.610903 32.875744 14.728520
LeftArm 48.948194 -50.936389 -58.094761
LeftForeArm 39.637993 0.000000 4.809062
LeftHand -16.041819 0.000000 -4.938790
LeftHandThumb1 -26.253704 0.000000 33.147579
Head -1.886629 11.946683 2.400493
7
root 1.059591 37.094095 4.464646 -1.578089 -1.598906 2.074482
RightUpLeg 10.936807 -3.138075 -5.886399
RightLeg -6.611070 -0.000000 0.000000
RightFoot -11.628019 -17.445286 19.040608
RightToeBase 14.105085 -0.000000 -0.000000
LeftUpLeg 8.759790 4.342644 2.276252
LeftLeg -3.379133 -0.000000 0.000000
LeftFoot -8.310803 13.091936 -17.717134
LeftToeBase 9.547185 -0.000000 -0.000000
Spine 4.051517 -3.962613 -1.087374
RightShoulder -5.486730 -11.324561 -27.711916
RightArm 8.372984 29.022316 28.291646
RightForeArm 6.392290 -0.000000 16.962263
RightHand 3.054634 0.000000 0.621429
RightHandThumb1 -24.326973 -0.000000 -32.862282
LeftShoulder -24.614226 32.891898 14.725131
LeftArm 48.970926 -50.928443 -58.129620
LeftForeArm 39.666628 -0.000000 4.828526
LeftHand -16.031033 0.000000 -4.993056
LeftHandThumb1 -26.253704 0.000000 33.147579
Head -1.862630 11.949817 2.395225
8
root 1.059074 37.094014 4.463977 -1.592418 -1.594199 2.076190
RightUpLeg 10.947474 -3.138195 -5.888023
RightLeg -6.604260 -0.000000 0.000000
RightFoot -11.636296 -17.446004 19.045603
RightToeBase 14.119782 -0.000000 -0.000000
LeftUpLeg 8.771019 4.349256 2.276842
LeftLeg -3.378283 -0.000000 0.000000
LeftFoot -8.311667 13.091698 -17.717882
LeftToeBase 9.557501 -0.000000 -0.000000
Spine 4.061159 -3.953130 -1.076579
RightShoulder -5.490019 -11.321052 -27.723438
RightArm 8.408036 29.143787 28.369916
RightForeArm 6.250770 -0.000000 16.961730
RightHand 3.048322 -0.000000 0.696361
RightHandThumb1 -24.326973 -0.000000 -32.862282
LeftShoulder -24.604171 32.896829 14.731269
LeftArm 48.956498 -50.907782 -58.125107
LeftForeArm 39.648879 -0.000000 4.830633
LeftHand -16.020446 -0.000000 -5.006076
LeftHandThumb1 -26.253704 0.000000 33.147579
Head -1.833316 11.952623 2.373478
9
root 1.058528 37.094276 4.462127 -1.597475 -1.586857 2.071972
RightUpLeg 10.945478 -3.151682 -5.885138
RightLeg -6.592598 -0.000000 0.000000
RightFoot -11.643664 -17.431623 19.069899
RightToeBase 14.121190 -0.000000 -0.000000
LeftUpLeg 8.769673 4.336272 2.279919
LeftLeg -3.372867 -0.000000 0.000000
LeftFoot -8.311876 13.100894 -17.711768
LeftToeBase 9.554987 -0.000000 -0.000000
Spine 4.058408 -3.954938 -1.057598
RightShoulder -5.471739 -11.321036 -27.710429
RightArm 8.361529 29.026912 28.328626
RightForeArm 6.358682 -0.000000 17.008518
RightHand 2.964095 -0.000000 0.757863
RightHandThumb1 -24.326973 -0.000000 -32.862282
LeftShoulder -24.614321 32.907771 14.721056
LeftArm 48.987738 -50.899214 -58.158498
LeftForeArm 39.665606 -0.000000 4.832273
LeftHand -16.007504 -0.000000 -5.039233
LeftHandThumb1 -26.253704 0.000000 33.147579
Head -1.799746 11.987094 2.362472
10
root 1.057402 37.094531 4.460737 -1.609470 -1.579928 2.066871
RightUpLeg 10.955631 -3.143921 -5.877641
RightLeg -6.592161 -0.000000 0.000000
RightFoot -11.638935 -17.448399 19.065014
RightToeBase 14.138142 -0.000000 -0.000000
LeftUpLeg 8.775592 4.346701 2.289822
LeftLeg -3.366749 -0.000000 0.000000
LeftFoot -8.315703 13.080997 -17.725291
LeftToeBase 9.564266 -0.000000 -0.000000
Spine 4.068817 -3.937312 -1.036336
RightShoulder -5.487449 -11.359197 -27.715873
RightArm 8.417154 29.158531 28.414870
RightForeArm 6.219882 0.000000 17.007113
RightHand 2.951147 -0.000000 0.761786
RightHandThumb1 -24.326973 -0.000000 -32.862282
LeftShoulder -24.601611 32.898110 14.721636
LeftArm 48.992763 -50.875705 -58.136707
LeftForeArm 39.621484 0.000000 4.786664
LeftHand -15.953567 -0.000000 -5.061760
LeftHandThumb1 -26.253704 0.000000 33.147579
Head -1.784931 12.002399 2.349770
11
root 1.057070 37.094577 4.459365 -1.621487 -1.577216 2.066204
RightUpLeg 10.962385 -3.142507 -5.875838
RightLeg -6.583312 -0.000000 0.000000
RightFoot -11.643739 -17.448600 19.053131
RightToeBase 14.115116 -0.000000 -0.000000
LeftUpLeg 8.779722 4.358798 2.292395
LeftLeg -3.355870 -0.000000 0.000000
LeftFoot -8.310295 13.075273 -17.694734
LeftToeBase 9.524587 -0.000000 -0.000000
Spine 4.080694 -3.935213 -1.025298
RightShoulder -5.478460 -11.358272 -27.708434
RightArm 8.393297 29.047489 28.400031
RightForeArm 6.362772 -0.000000 17.049902
RightHand 2.990592 -0.000000 0.632322
RightHandThumb1 -24.326973 -0.000000 -32.862282
LeftShoulder -24.635099 32.911533 14.705584
LeftArm 49.059610 -50.855515 -58.193390
LeftForeArm 39.686069 0.000000 4.788135
LeftHand -16.129971 -0.000000 -4.848951
LeftHandThumb1 -26.253704 0.000000 33.147579
Head -1.768707 12.025326 2.332121
12
root 1.056421 37.094757 4.458075 -1.630288 -1.566158 2.068881
RightUpLeg 10.968322 -3.154081 -5.878700
RightLeg -6.577514 -0.000000 0.000000
RightFoot -11.646054 -17.446569 19.047169
RightToeBase 14.104280 -0.000000 -0.000000
LeftUpLeg 8.778654 4.361265 2.293030
LeftLeg -3.343317 -0.000000 0.000000
LeftFoot -8.302256 13.059987 -17.690704
LeftToeBase 9.493501 -0.000000 -0.000000
Spine 4.084764 -3.934654 -1.018300
RightShoulder -5.470278 -11.339324 -27.706526
RightArm 8.382086 28.998507 28.413439
RightForeArm 6.405430 -0.000000 17.060537
RightHand 3.001956 -0.000000 0.551083
RightHandThumb1 -24.326973 -0.000000 -32.862282
LeftShoulder -24.629053 32.902191 14.708416
LeftArm 49.043106 -50.836570 -58.171006
LeftForeArm 39.659793 -0.000000 4.779551
LeftHand -16.129702 -0.000000 -4.863014
LeftHandThumb1 -26.253704 0.000000 33.147579
Head -1.742464 12.054537 2.337008
13
root 1.056257 37.095073 4.456240 -1.641674 -1.559324 2.067151
RightUpLeg 10.972951 -3.149030 -5.875518
RightLeg -6.565779 -0.000000 0.000000
RightFoot -11.652189 -17.457724 19.048497
RightToeBase 14.116852 -0.000000 -0.000000
LeftUpLeg 8.781914 4.358221 2.296542
LeftLeg -3.335586 -0.000000 0.000000
LeftFoot -8.306235 13.050178 -17.708599
LeftToeBase 9.538996 -0.000000 -0.000000
Spine 4.097303 -3.926738 -1.006695
RightShoulder -5.445067 -11.267390 -27.695933
RightArm 8.334097 29.056987 28.418158
RightForeArm 6.304674 -0.000000 17.048838
RightHand 3.017714 -0.000000 0.625777
RightHandThumb1 -24.326973 -0.000000 -32.862282
LeftShoulder -24.633296 32.897568 14.703329
LeftArm 49.081551 -50.835906 -58.196822
LeftForeArm 39.672807 -0.000000 4.760832
LeftHand -16.063027 -0.000000 -4.921920
LeftHandThumb1 -26.253704 0.000000 33.147579
Head -1.728848 12.075532 2.325500
